<?xml version="1.0" encoding="UTF-8" standalone="no"?>
<!DOCTYPE svg PUBLIC "-//W3C//DTD SVG 1.1//EN"
 "http://www.w3.org/Graphics/SVG/1.1/DTD/svg11.dtd">
<!-- Generated by graphviz version 2.26.3 (20100126.1600)
 -->
<!-- Title: workflow Pages: 1 -->
<svg width="2231pt" height="404pt"
 viewBox="0.00 0.00 2231.00 404.00" xmlns="http://www.w3.org/2000/svg" xmlns:xlink="http://www.w3.org/1999/xlink">
<g id="graph1" class="graph" transform="scale(1 1) rotate(0) translate(4 400)">
<title>workflow</title>
<polygon fill="white" stroke="white" points="-4,5 -4,-400 2228,-400 2228,5 -4,5"/>
<!-- txt -->
<g id="node1" class="node"><title>txt</title>
<polygon fill="none" stroke="black" points="1450,-396 1370,-396 1370,-360 1450,-360 1450,-396"/>
<text text-anchor="middle" x="1410" y="-374.4" font-family="Times Roman,serif" font-size="14.00">Raw text</text>
</g>
<!-- ss -->
<g id="node2" class="node"><title>ss</title>
<polygon fill="none" stroke="black" points="1520,-324 1300,-324 1300,-288 1520,-288 1520,-324"/>
<text text-anchor="middle" x="1410" y="-302.4" font-family="Times Roman,serif" font-size="14.00">Sentence split using newlines</text>
</g>
<!-- txt&#45;&gt;ss -->
<g id="edge2" class="edge"><title>txt&#45;&gt;ss</title>
<path fill="none" stroke="black" d="M1410,-359.831C1410,-352.131 1410,-342.974 1410,-334.417"/>
<polygon fill="black" stroke="black" points="1413.5,-334.413 1410,-324.413 1406.5,-334.413 1413.5,-334.413"/>
</g>
<!-- tok -->
<g id="node4" class="node"><title>tok</title>
<polygon fill="none" stroke="black" points="1133,-252 1017,-252 1017,-216 1133,-216 1133,-252"/>
<text text-anchor="middle" x="1075" y="-230.4" font-family="Times Roman,serif" font-size="14.00">Tokenised text</text>
</g>
<!-- ss&#45;&gt;tok -->
<g id="edge4" class="edge"><title>ss&#45;&gt;tok</title>
<path fill="none" stroke="black" d="M1325.9,-287.924C1269.36,-275.773 1195.81,-259.965 1142.98,-248.61"/>
<polygon fill="black" stroke="black" points="1143.54,-245.152 1133.03,-246.472 1142.07,-251.996 1143.54,-245.152"/>
</g>
<!-- tok_mccc -->
<g id="node6" class="node"><title>tok_mccc</title>
<polygon fill="none" stroke="black" points="1567,-252 1253,-252 1253,-216 1567,-216 1567,-252"/>
<text text-anchor="middle" x="1410" y="-230.4" font-family="Times Roman,serif" font-size="14.00">Tokenised text adapted to the MCCC model</text>
</g>
<!-- ss&#45;&gt;tok_mccc -->
<g id="edge6" class="edge"><title>ss&#45;&gt;tok_mccc</title>
<path fill="none" stroke="black" d="M1410,-287.831C1410,-280.131 1410,-270.974 1410,-262.417"/>
<polygon fill="black" stroke="black" points="1413.5,-262.413 1410,-252.413 1406.5,-262.413 1413.5,-262.413"/>
</g>
<!-- tok_ptb -->
<g id="node8" class="node"><title>tok_ptb</title>
<polygon fill="none" stroke="black" points="1878,-252 1636,-252 1636,-216 1878,-216 1878,-252"/>
<text text-anchor="middle" x="1757" y="-230.4" font-family="Times Roman,serif" font-size="14.00">Tokenised text with PTB escapes</text>
</g>
<!-- ss&#45;&gt;tok_ptb -->
<g id="edge8" class="edge"><title>ss&#45;&gt;tok_ptb</title>
<path fill="none" stroke="black" d="M1497.11,-287.924C1546.71,-277.634 1608.94,-264.72 1660.08,-254.111"/>
<polygon fill="black" stroke="black" points="1661.07,-257.479 1670.15,-252.021 1659.65,-250.625 1661.07,-257.479"/>
</g>
<!-- enju_xml -->
<g id="node10" class="node"><title>enju_xml</title>
<polygon fill="none" stroke="black" points="562,-180 360,-180 360,-144 562,-144 562,-180"/>
<text text-anchor="middle" x="461" y="-158.4" font-family="Times Roman,serif" font-size="14.00">Enju output in XML&#45;format</text>
</g>
<!-- tok&#45;&gt;enju_xml -->
<g id="edge10" class="edge"><title>tok&#45;&gt;enju_xml</title>
<path fill="none" stroke="black" d="M1016.96,-227.194C915.207,-215.262 703.028,-190.381 572.22,-175.042"/>
<polygon fill="black" stroke="black" points="572.505,-171.552 562.165,-173.863 571.69,-178.504 572.505,-171.552"/>
</g>
<!-- stp_ptb -->
<g id="node20" class="node"><title>stp_ptb</title>
<polygon fill="none" stroke="black" points="936,-180 710,-180 710,-144 936,-144 936,-180"/>
<text text-anchor="middle" x="823" y="-158.4" font-family="Times Roman,serif" font-size="14.00">Stanford output in PTB&#45;format</text>
</g>
<!-- tok&#45;&gt;stp_ptb -->
<g id="edge20" class="edge"><title>tok&#45;&gt;stp_ptb</title>
<path fill="none" stroke="black" d="M1016.87,-217.391C980.977,-207.136 934.61,-193.889 896.222,-182.921"/>
<polygon fill="black" stroke="black" points="896.712,-179.42 886.135,-180.039 894.789,-186.151 896.712,-179.42"/>
</g>
<!-- gdep_conll -->
<g id="node36" class="node"><title>gdep_conll</title>
<polygon fill="none" stroke="black" points="1194,-180 956,-180 956,-144 1194,-144 1194,-180"/>
<text text-anchor="middle" x="1075" y="-158.4" font-family="Times Roman,serif" font-size="14.00">GDep output in CoNLL&#45;X&#45;format</text>
</g>
<!-- tok&#45;&gt;gdep_conll -->
<g id="edge36" class="edge"><title>tok&#45;&gt;gdep_conll</title>
<path fill="none" stroke="black" d="M1075,-215.831C1075,-208.131 1075,-198.974 1075,-190.417"/>
<polygon fill="black" stroke="black" points="1078.5,-190.413 1075,-180.413 1071.5,-190.413 1078.5,-190.413"/>
</g>
<!-- ccg_ccg -->
<g id="node38" class="node"><title>ccg_ccg</title>
<polygon fill="none" stroke="black" points="1419,-180 1217,-180 1217,-144 1419,-144 1419,-180"/>
<text text-anchor="middle" x="1318" y="-158.4" font-family="Times Roman,serif" font-size="14.00">CCG output in CCG&#45;format</text>
</g>
<!-- tok&#45;&gt;ccg_ccg -->
<g id="edge38" class="edge"><title>tok&#45;&gt;ccg_ccg</title>
<path fill="none" stroke="black" d="M1133.2,-216.754C1167.34,-206.639 1210.73,-193.783 1246.89,-183.07"/>
<polygon fill="black" stroke="black" points="1248.29,-186.307 1256.88,-180.11 1246.3,-179.595 1248.29,-186.307"/>
</g>
<!-- ucb_ptb -->
<g id="node28" class="node"><title>ucb_ptb</title>
<polygon fill="none" stroke="black" points="1897,-180 1669,-180 1669,-144 1897,-144 1897,-180"/>
<text text-anchor="middle" x="1783" y="-158.4" font-family="Times Roman,serif" font-size="14.00">Berkeley output in PTB&#45;format</text>
</g>
<!-- tok_ptb&#45;&gt;ucb_ptb -->
<g id="edge28" class="edge"><title>tok_ptb&#45;&gt;ucb_ptb</title>
<path fill="none" stroke="black" d="M1763.56,-215.831C1766.4,-207.962 1769.79,-198.571 1772.94,-189.853"/>
<polygon fill="black" stroke="black" points="1776.25,-191.008 1776.35,-180.413 1769.66,-188.63 1776.25,-191.008"/>
</g>
<!-- enju_ptb -->
<g id="node12" class="node"><title>enju_ptb</title>
<polygon fill="none" stroke="black" points="429,-108 231,-108 231,-72 429,-72 429,-108"/>
<text text-anchor="middle" x="330" y="-86.4" font-family="Times Roman,serif" font-size="14.00">Enju output in PTB&#45;format</text>
</g>
<!-- enju_xml&#45;&gt;enju_ptb -->
<g id="edge12" class="edge"><title>enju_xml&#45;&gt;enju_ptb</title>
<path fill="none" stroke="black" d="M427.943,-143.831C411.032,-134.537 390.261,-123.121 372.206,-113.197"/>
<polygon fill="black" stroke="black" points="373.496,-109.912 363.046,-108.163 370.124,-116.047 373.496,-109.912"/>
</g>
<!-- enju_sd -->
<g id="node14" class="node"><title>enju_sd</title>
<polygon fill="none" stroke="black" points="190,-36 9.9476e-14,-36 0,-1.77636e-14 190,-3.55271e-15 190,-36"/>
<text text-anchor="middle" x="95" y="-14.4" font-family="Times Roman,serif" font-size="14.00">Enju output in SD&#45;format</text>
</g>
<!-- enju_ptb&#45;&gt;enju_sd -->
<g id="edge14" class="edge"><title>enju_ptb&#45;&gt;enju_sd</title>
<path fill="none" stroke="black" d="M271.003,-71.9243C238.458,-61.9531 197.874,-49.5188 163.881,-39.104"/>
<polygon fill="black" stroke="black" points="164.608,-35.6662 154.021,-36.0831 162.557,-42.3591 164.608,-35.6662"/>
</g>
<!-- enju_cc_sd -->
<g id="node16" class="node"><title>enju_cc_sd</title>
<polygon fill="none" stroke="black" points="452,-36 208,-36 208,-1.77636e-14 452,-3.55271e-15 452,-36"/>
<text text-anchor="middle" x="330" y="-14.4" font-family="Times Roman,serif" font-size="14.00">Enju output in CCProc SD&#45;format</text>
</g>
<!-- enju_ptb&#45;&gt;enju_cc_sd -->
<g id="edge16" class="edge"><title>enju_ptb&#45;&gt;enju_cc_sd</title>
<path fill="none" stroke="black" d="M330,-71.8314C330,-64.131 330,-54.9743 330,-46.4166"/>
<polygon fill="black" stroke="black" points="333.5,-46.4132 330,-36.4133 326.5,-46.4133 333.5,-46.4132"/>
</g>
<!-- enju_conll -->
<g id="node18" class="node"><title>enju_conll</title>
<polygon fill="none" stroke="black" points="700,-36 470,-36 470,-1.77636e-14 700,-3.55271e-15 700,-36"/>
<text text-anchor="middle" x="585" y="-14.4" font-family="Times Roman,serif" font-size="14.00">Enju output in CoNLL&#45;X&#45;format</text>
</g>
<!-- enju_ptb&#45;&gt;enju_conll -->
<g id="edge18" class="edge"><title>enju_ptb&#45;&gt;enju_conll</title>
<path fill="none" stroke="black" d="M394.018,-71.9243C429.636,-61.8675 474.128,-49.3052 511.205,-38.8363"/>
<polygon fill="black" stroke="black" points="512.283,-42.1688 520.956,-36.0831 510.381,-35.4322 512.283,-42.1688"/>
</g>
<!-- stp_sd -->
<g id="node22" class="node"><title>stp_sd</title>
<polygon fill="none" stroke="black" points="667,-108 447,-108 447,-72 667,-72 667,-108"/>
<text text-anchor="middle" x="557" y="-86.4" font-family="Times Roman,serif" font-size="14.00">Stanford output in SD&#45;format</text>
</g>
<!-- stp_ptb&#45;&gt;stp_sd -->
<g id="edge22" class="edge"><title>stp_ptb&#45;&gt;stp_sd</title>
<path fill="none" stroke="black" d="M756.22,-143.924C718.908,-133.825 672.26,-121.198 633.485,-110.703"/>
<polygon fill="black" stroke="black" points="634.374,-107.318 623.807,-108.083 632.545,-114.074 634.374,-107.318"/>
</g>
<!-- stp_cc_sd -->
<g id="node24" class="node"><title>stp_cc_sd</title>
<polygon fill="none" stroke="black" points="959,-108 685,-108 685,-72 959,-72 959,-108"/>
<text text-anchor="middle" x="822" y="-86.4" font-family="Times Roman,serif" font-size="14.00">Stanford output in CCProc SD&#45;format</text>
</g>
<!-- stp_ptb&#45;&gt;stp_cc_sd -->
<g id="edge24" class="edge"><title>stp_ptb&#45;&gt;stp_cc_sd</title>
<path fill="none" stroke="black" d="M822.748,-143.831C822.641,-136.131 822.514,-126.974 822.395,-118.417"/>
<polygon fill="black" stroke="black" points="825.894,-118.364 822.256,-108.413 818.895,-118.461 825.894,-118.364"/>
</g>
<!-- stp_conll -->
<g id="node26" class="node"><title>stp_conll</title>
<polygon fill="none" stroke="black" points="1207,-108 977,-108 977,-72 1207,-72 1207,-108"/>
<text text-anchor="middle" x="1092" y="-86.4" font-family="Times Roman,serif" font-size="14.00">Enju output in CoNLL&#45;X&#45;format</text>
</g>
<!-- stp_ptb&#45;&gt;stp_conll -->
<g id="edge26" class="edge"><title>stp_ptb&#45;&gt;stp_conll</title>
<path fill="none" stroke="black" d="M890.533,-143.924C928.266,-133.825 975.44,-121.198 1014.65,-110.703"/>
<polygon fill="black" stroke="black" points="1015.68,-114.05 1024.44,-108.083 1013.87,-107.288 1015.68,-114.05"/>
</g>
<!-- ucb_sd -->
<g id="node30" class="node"><title>ucb_sd</title>
<polygon fill="none" stroke="black" points="1653,-108 1433,-108 1433,-72 1653,-72 1653,-108"/>
<text text-anchor="middle" x="1543" y="-86.4" font-family="Times Roman,serif" font-size="14.00">Berkeley output in SD&#45;format</text>
</g>
<!-- ucb_ptb&#45;&gt;ucb_sd -->
<g id="edge30" class="edge"><title>ucb_ptb&#45;&gt;ucb_sd</title>
<path fill="none" stroke="black" d="M1722.75,-143.924C1689.37,-133.91 1647.71,-121.412 1612.9,-110.97"/>
<polygon fill="black" stroke="black" points="1613.86,-107.604 1603.28,-108.083 1611.85,-114.309 1613.86,-107.604"/>
</g>
<!-- ucb_cc_sd -->
<g id="node32" class="node"><title>ucb_cc_sd</title>
<polygon fill="none" stroke="black" points="1945,-108 1671,-108 1671,-72 1945,-72 1945,-108"/>
<text text-anchor="middle" x="1808" y="-86.4" font-family="Times Roman,serif" font-size="14.00">Berkeley output in CCProc SD&#45;format</text>
</g>
<!-- ucb_ptb&#45;&gt;ucb_cc_sd -->
<g id="edge32" class="edge"><title>ucb_ptb&#45;&gt;ucb_cc_sd</title>
<path fill="none" stroke="black" d="M1789.31,-143.831C1792.01,-136.046 1795.23,-126.773 1798.23,-118.135"/>
<polygon fill="black" stroke="black" points="1801.63,-119.008 1801.61,-108.413 1795.02,-116.712 1801.63,-119.008"/>
</g>
<!-- ucb_conll -->
<g id="node34" class="node"><title>ucb_conll</title>
<polygon fill="none" stroke="black" points="2223,-108 1963,-108 1963,-72 2223,-72 2223,-108"/>
<text text-anchor="middle" x="2093" y="-86.4" font-family="Times Roman,serif" font-size="14.00">Berkeley output in CoNLL&#45;X&#45;format</text>
</g>
<!-- ucb_ptb&#45;&gt;ucb_conll -->
<g id="edge34" class="edge"><title>ucb_ptb&#45;&gt;ucb_conll</title>
<path fill="none" stroke="black" d="M1860.83,-143.924C1904.85,-133.698 1960.04,-120.882 2005.56,-110.31"/>
<polygon fill="black" stroke="black" points="2006.46,-113.692 2015.41,-108.021 2004.88,-106.874 2006.46,-113.692"/>
</g>
<!-- ccg_sd -->
<g id="node40" class="node"><title>ccg_sd</title>
<polygon fill="none" stroke="black" points="1415,-108 1225,-108 1225,-72 1415,-72 1415,-108"/>
<text text-anchor="middle" x="1320" y="-86.4" font-family="Times Roman,serif" font-size="14.00">CCG output in SD&#45;format</text>
</g>
<!-- ccg_ccg&#45;&gt;ccg_sd -->
<g id="edge40" class="edge"><title>ccg_ccg&#45;&gt;ccg_sd</title>
<path fill="none" stroke="black" d="M1318.5,-143.831C1318.72,-136.131 1318.97,-126.974 1319.21,-118.417"/>
<polygon fill="black" stroke="black" points="1322.71,-118.507 1319.49,-108.413 1315.71,-118.312 1322.71,-118.507"/>
</g>
</g>
</svg>
